<?xml version="1.0" encoding="UTF-8"?>
<svg version="1.1" xmlns="http://www.w3.org/2000/svg" width="2500" height="2500">
<path d="M0 0 C1.76141648 -0.00134836 3.52283267 -0.00313321 5.28424832 -0.00531223 C10.11907668 -0.01002746 14.95388612 -0.00854536 19.78871539 -0.00603446 C25.05088839 -0.00439833 30.31305739 -0.00854477 35.57522911 -0.01194364 C44.79632887 -0.0170941 54.01742338 -0.01851545 63.23852444 -0.01748753 C76.95096484 -0.01596266 90.66339943 -0.02012422 104.37583871 -0.02536215 C130.29172801 -0.03503497 156.20761439 -0.03784699 182.12350512 -0.03841921 C184.98099558 -0.03848396 187.83848604 -0.0385519 190.6959765 -0.03862262 C191.75965205 -0.03864812 191.75965205 -0.03864812 192.84481599 -0.03867415 C208.567761 -0.03908283 224.29070561 -0.04127347 240.0136504 -0.04377846 C246.49044876 -0.04480684 252.96724712 -0.04579688 259.44404548 -0.04679471 C260.15970539 -0.0469053 260.8753653 -0.04701589 261.61271187 -0.04712983 C302.61735969 -0.05345292 343.62200725 -0.05757906 384.62665558 -0.05712128 C386.16080609 -0.0571055 387.6949566 -0.05708976 389.22910711 -0.05707407 C396.15546714 -0.05700069 403.08182717 -0.05691252 410.0081872 -0.05682018 C413.0967433 -0.05677906 416.1852994 -0.05673891 419.27385549 -0.05669887 C420.81973255 -0.05667848 422.3656096 -0.05665746 423.91148666 -0.05663581 C472.78722343 -0.05595566 521.66295296 -0.06327169 570.53868771 -0.07717609 C582.85226629 -0.08067722 595.16584488 -0.08414673 607.47942352 -0.08744049 C608.23765801 -0.08764336 608.9958925 -0.08784624 609.77710379 -0.08805526 C633.1539887 -0.09427216 656.53087301 -0.09803619 679.90775871 -0.09929848 C680.64191591 -0.09933843 681.3760731 -0.09937838 682.13247749 -0.09941954 C698.2505829 -0.1002729 714.36868827 -0.10053398 730.4867937 -0.10024916 C736.2544497 -0.10015268 742.0221057 -0.10010064 747.78976171 -0.10007043 C749.22456231 -0.10006252 750.65936292 -0.10005232 752.09416352 -0.10003981 C774.93642202 -0.09986364 797.7786743 -0.10555531 820.62093102 -0.11419363 C844.27463089 -0.12309333 867.92831827 -0.12465923 891.58201957 -0.1178815 C905.21319027 -0.1141862 918.84433377 -0.11601766 932.47550159 -0.12582384 C941.58548305 -0.13182355 950.69544481 -0.13052844 959.80542536 -0.12335334 C964.99285132 -0.1194718 970.18022464 -0.11869635 975.36764688 -0.12681069 C980.09672315 -0.13414309 984.82570345 -0.13209068 989.55477561 -0.12288683 C991.24533984 -0.12118052 992.9359118 -0.1227441 994.62646813 -0.12818803 C1009.84371136 -0.17386666 1025.00703067 0.92312809 1039.959342 3.87863445 C1040.82365841 4.048549 1041.68797482 4.21846355 1042.57848263 4.39352703 C1080.64236274 12.19911029 1115.54580192 30.83666277 1144.14293575 56.97238445 C1146.29694709 58.92478882 1148.49211927 60.81140805 1150.709342 62.69113445 C1154.71802041 66.19673171 1158.09860622 70.06014589 1161.521842 74.12863445 C1162.3571545 75.07609539 1163.192467 76.02355633 1164.053092 76.9997282 C1177.15398113 91.93913369 1186.65120112 108.95880514 1196.521842 126.12863445 C1197.75566335 128.26567295 1198.9900391 130.40239146 1200.224967 132.5387907 C1203.36451413 137.97219491 1206.49848642 143.40879004 1209.63072872 148.84640789 C1212.75864349 154.27523388 1215.89042648 159.70182726 1219.021842 165.12863445 C1220.27186079 167.29529028 1221.52186079 169.46195695 1222.771842 171.62863445 C1223.390592 172.70113445 1224.009342 173.77363445 1224.646842 174.87863445 C1260.27184202 236.62863448 1260.27184202 236.62863448 1262.14708614 239.87912273 C1263.39619718 242.04420516 1264.6453833 244.20924427 1265.89464474 246.37423992 C1269.0338651 251.81479151 1272.17174763 257.25610661 1275.30699825 262.69894695 C1281.32931529 273.15069645 1287.36853538 283.59162993 1293.459342 294.00363445 C1298.88105378 303.27363223 1304.22389116 312.58695197 1309.54106808 321.9170866 C1314.74229329 331.04146285 1320.00212078 340.12996219 1325.30528927 349.19552898 C1331.45950942 359.7194807 1337.54554196 370.28243583 1343.63072872 380.84640789 C1346.75864349 386.27523388 1349.89042648 391.70182726 1353.021842 397.12863445 C1354.27186079 399.29529028 1355.52186079 401.46195695 1356.771842 403.62863445 C1357.390592 404.70113445 1358.009342 405.77363445 1358.646842 406.87863445 C1439.27184201 546.62863446 1439.27184201 546.62863446 1441.14708614 549.87912273 C1442.39619718 552.04420516 1443.6453833 554.20924427 1444.89464474 556.37423992 C1448.0338651 561.81479151 1451.17174763 567.25610661 1454.30699825 572.69894695 C1460.32931529 583.15069645 1466.36853538 593.59162993 1472.459342 604.00363445 C1477.88105378 613.27363223 1483.22389116 622.58695197 1488.54106808 631.9170866 C1493.74229329 641.04146285 1499.00212078 650.12996219 1504.30528927 659.19552898 C1510.45950942 669.7194807 1516.54554196 680.28243583 1522.63072872 690.84640789 C1525.75864349 696.27523388 1528.89042648 701.70182726 1532.021842 707.12863445 C1533.27186079 709.29529028 1534.52186079 711.46195695 1535.771842 713.62863445 C1536.390592 714.70113445 1537.009342 715.77363445 1537.646842 716.87863445 C1603.271842 830.62863445 1603.271842 830.62863445 1605.14708614 833.87912273 C1606.39619718 836.04420516 1607.6453833 838.20924427 1608.89464474 840.37423992 C1612.0338651 845.81479151 1615.17174763 851.25610661 1618.30699825 856.69894695 C1624.32931529 867.15069645 1630.36853538 877.59162993 1636.459342 888.00363445 C1641.88105378 897.27363223 1647.22389116 906.58695197 1652.54106808 915.9170866 C1657.17959719 924.05433948 1661.85612811 932.16805335 1666.584342 940.25363445 C1667.72366719 942.20415396 1668.8629901 944.1546748 1670.00231075 946.10519695 C1671.81971798 949.21620372 1673.63782754 952.32678982 1675.45787716 955.43625164 C1696.92507139 992.15437282 1715.45728964 1031.01239138 1715.724967 1074.5466032 C1715.73548847 1075.70360226 1715.73548847 1075.70360226 1715.7462225 1076.88397503 C1715.76362724 1079.36142169 1715.77007559 1081.83862888 1715.771842 1084.31613445 C1715.77285412 1085.58926998 1715.77285412 1085.58926998 1715.77388668 1086.88812542 C1715.7571201 1100.17618979 1715.19865012 1113.07337012 1712.521842 1126.12863445 C1712.34491817 1127.00181316 1712.16799435 1127.87499187 1711.98570919 1128.77463055 C1704.77157409 1163.34391868 1688.91145686 1192.65369556 1671.18981075 1222.86300945 C1667.4585823 1229.2263448 1663.76706143 1235.61213 1660.084342 1242.00363445 C1659.46204708 1243.08338543 1658.83975216 1244.16313641 1658.19859982 1245.27560711 C1656.93655475 1247.4657798 1655.67467348 1249.65604688 1654.41295528 1251.84640789 C1651.28504052 1257.27523388 1648.15325752 1262.70182726 1645.021842 1268.12863445 C1643.77182321 1270.29529028 1642.52182322 1272.46195695 1641.271842 1274.62863445 C1613.771842 1322.29530112 1586.271842 1369.96196779 1558.771842 1417.62863445 C1558.15276974 1418.70169842 1557.53369747 1419.77476238 1556.89586544 1420.88034344 C1555.64913945 1423.04132433 1554.40239473 1425.20229443 1553.15563107 1427.36325359 C1549.98038317 1432.86682297 1546.80548705 1438.37059478 1543.631217 1443.8747282 C1542.99055294 1444.98509441 1542.34988888 1446.09546062 1541.68981075 1447.2394743 C1540.42520431 1449.43289682 1539.1621472 1451.62721344 1537.90074825 1453.82248211 C1535.00656592 1458.85413226 1532.09068389 1463.86850228 1529.099967 1468.8434782 C1528.57757442 1469.72012127 1528.05518185 1470.59676434 1527.51695919 1471.49997234 C1526.54877306 1473.12125725 1525.57084127 1474.73677819 1524.58141232 1476.34518719 C1524.15956661 1477.05489666 1523.73772091 1477.76460613 1523.303092 1478.49582195 C1522.93248653 1479.10538738 1522.56188107 1479.71495281 1522.18004513 1480.34298992 C1521.3164777 1482.68576892 1521.72767607 1483.78502077 1522.521842 1486.12863445 C1524.41249244 1488.20365357 1526.30223652 1490.11455155 1528.3421545 1492.0309782 C1529.52875332 1493.17965275 1530.71493886 1494.32875435 1531.90074825 1495.47824383 C1533.77619534 1497.27909647 1535.65603506 1499.07484124 1537.54381466 1500.86276531 C1539.36474006 1502.59323796 1541.16668164 1504.34177096 1542.9671545 1506.0934782 C1543.537897 1506.62384182 1544.10863949 1507.15420544 1544.69667721 1507.70064068 C1546.26451778 1509.23776531 1546.26451778 1509.23776531 1548.521842 1512.12863445 C1548.5456841 1515.96396024 1546.8837416 1518.53553126 1544.818717 1521.69113445 C1544.25741085 1522.55915691 1543.6961047 1523.42717937 1543.11778927 1524.32150555 C1542.50862667 1525.24785809 1541.89946407 1526.17421062 1541.271842 1527.12863445 C1539.98292461 1529.1200736 1538.69519095 1531.11227933 1537.40856075 1533.10519695 C1536.42895382 1534.61775066 1536.42895382 1534.61775066 1535.42955685 1536.16086102 C1532.59239834 1540.57454143 1529.83429655 1545.03527946 1527.084342 1549.50363445 C1522.46193115 1556.99758573 1517.81602928 1564.47622904 1513.146842 1571.94113445 C1512.5197131 1572.94402508 1511.89258419 1573.9469157 1511.24645138 1574.98019695 C1508.09948585 1580.01147653 1504.95015285 1585.04126642 1501.79918575 1590.0700407 C1494.57632976 1601.60381627 1487.41114711 1613.17092366 1480.29161739 1624.76877117 C1475.94750708 1631.83663282 1471.54753188 1638.86552251 1467.09923458 1645.86813641 C1462.84366218 1652.58305625 1458.67958915 1659.35281125 1454.521842 1666.12863445 C1449.36493623 1674.53223328 1444.16469587 1682.90415668 1438.88243771 1691.22946453 C1435.28675854 1696.90183806 1431.73847656 1702.60214525 1428.209342 1708.31613445 C1423.54286577 1715.87104809 1418.85532368 1723.41232228 1414.146842 1730.94113445 C1413.51987423 1731.94378338 1412.89290646 1732.9464323 1412.24693966 1733.97946453 C1409.09978286 1739.01097039 1405.95030857 1744.04101789 1402.79918575 1749.0700407 C1395.57632976 1760.60381627 1388.41114711 1772.17092366 1381.29161739 1783.76877117 C1376.94750708 1790.83663282 1372.54753188 1797.86552251 1368.09923458 1804.86813641 C1363.84366218 1811.58305625 1359.67958915 1818.35281125 1355.521842 1825.12863445 C1350.36493623 1833.53223328 1345.16469587 1841.90415668 1339.88243771 1850.22946453 C1336.28675854 1855.90183806 1332.73847656 1861.60214525 1329.209342 1867.31613445 C1324.54286577 1874.87104809 1319.85532368 1882.41232228 1315.146842 1889.94113445 C1314.51987423 1890.94378338 1313.89290646 1891.9464323 1313.24693966 1892.97946453 C1310.09978286 1898.01097039 1306.95030857 1903.04101789 1303.79918575 1908.0700407 C1296.57632976 1919.60381627 1289.41114711 1931.17092366 1282.29161739 1942.76877117 C1277.94750708 1949.83663282 1273.54753188 1956.86552251 1269.09923458 1963.86813641 C1264.84366218 1970.58305625 1260.67958915 1977.35281125 1256.521842 1984.12863445 C1251.36493623 1992.53223328 1246.16469587 2000.90415668 1240.88243771 2009.22946453 C1237.28675854 2014.90183806 1233.73847656 2020.60214525 1230.209342 2026.31613445 C1225.54286577 2033.87104809 1220.85532368 2041.41232228 1216.146842 2048.94113445 C1215.51987423 2049.94378338 1214.89290646 2050.9464323 1214.24693966 2051.97946453 C1211.09978286 2057.01097039 1207.95030857 2062.04101789 1204.79918575 2067.0700407 C1197.57632976 2078.60381627 1190.41114711 2090.17092366 1183.29161739 2101.76877117 C1178.94750708 2108.83663282 1174.54753188 2115.86552251 1170.09923458 2122.86813641 C1165.1457929 2130.68423273 1160.31515769 2138.57503305 1155.47667599 2146.46261883 C1150.73254734 2154.18708485 1145.93002751 2161.87174221 1141.06285763 2169.51925945 C1140.60717403 2170.2359782 1140.15149044 2170.95269695 1139.68199825 2171.69113445 C1139.08850582 2172.62119305 1139.08850582 2172.62119305 1138.48302364 2173.5700407 C1137.46270567 2175.17287199 1137.46270567 2175.17287199 1136.521842 2177.12863445 C1117.11043146 2178.04588488 1097.69882206 2178.9588114 1078.28697109 2179.86669445 C1069.27222869 2180.28840896 1060.25755489 2180.71149892 1051.24303341 2181.1379118 C1043.37923069 2181.50988876 1035.51530784 2181.87919856 1027.65123415 2182.24540377 C1023.49343207 2182.43911029 1019.33569884 2182.63408544 1015.17810726 2182.83226299 C1011.25161351 2183.01938249 1007.32496639 2183.20289103 1003.39818287 2183.38382435 C1001.96966631 2183.45024827 1000.5412064 2183.517906 999.11281681 2183.58700657 C995.86280773 2183.7438997 992.6158295 2183.87867241 989.36319637 2183.96992779 C986.0582367 2184.10647315 982.85611141 2184.39863866 979.58189011 2184.83245468 C976.12086631 2184.96295255 972.86956353 2185.05720356 969.521842 2184.12863445 C967.44178993 2182.16248728 965.82299879 2180.38094474 964.06800431 2178.17216218 C959.70059843 2173.32905994 956.58733448 2171.25874656 949.85979444 2170.6341418 C946.90579157 2170.53381266 943.96752154 2170.58049784 941.01310349 2170.64202976 C939.35749564 2170.63203675 937.7019128 2170.61677819 936.04639569 2170.59677124 C931.50429598 2170.55705724 926.96538413 2170.59180553 922.42346842 2170.63890365 C917.47962926 2170.67686359 912.53615551 2170.64493027 907.59229249 2170.6219064 C898.92979086 2170.59115417 890.26824642 2170.60484661 881.60580921 2170.64770985 C868.72399296 2170.71123554 855.8428478 2170.70587122 842.96092252 2170.68633485 C821.28471345 2170.65537172 799.60890035 2170.67993918 777.93275547 2170.73580837 C756.45405123 2170.79104256 734.97555546 2170.82046344 713.49677753 2170.81580257 C712.82906481 2170.8156682 712.16135208 2170.81553382 711.47340563 2170.81539537 C704.69347304 2170.81400735 697.91354067 2170.81211915 691.1336083 2170.80990887 C676.65145085 2170.80522578 662.16929378 2170.80453158 647.6871357 2170.80580616 C646.65138871 2170.80589208 646.65138871 2170.80589208 645.59471754 2170.80597974 C612.01073299 2170.80907856 578.42682806 2170.85539723 544.84288692 2170.9059782 C533.19213049 2170.92348859 521.54137389 2170.94086742 509.89061642 2170.95767498 C509.16817137 2170.95871833 508.44572632 2170.95976167 507.701389 2170.96083664 C474.15839734 2171.00909104 440.61540445 2171.03167711 407.07238314 2171.04660957 C404.89619265 2171.04757951 402.72000217 2171.04856376 400.54381169 2171.04955063 C369.83562761 2171.06341814 339.12744243 2171.0732835 308.41925644 2171.08178031 C299.3829577 2171.0842851 290.34665898 2171.0869109 281.31036029 2171.08960278 C280.62698682 2171.08980631 279.94361336 2171.09000985 279.2395316 2171.09021956 C277.86121838 2171.09063016 276.48290516 2171.09104114 275.10459193 2171.09145249 C270.99009487 2171.09267352 266.87559779 2171.09383034 262.76110069 2171.09494012 C228.50139343 2171.10420721 194.24175515 2171.12839591 159.9820766 2171.17444183 C158.6830417 2171.1761873 157.3840068 2171.17793277 156.04560721 2171.17973113 C154.75175409 2171.18147239 153.45790098 2171.18321365 152.12484019 2171.18500767 C135.81624179 2171.20659828 119.50763648 2171.22137977 103.19902996 2171.23530905 C90.39561514 2171.24658947 77.59223883 2171.26395041 64.78884484 2171.28970915 C56.22297857 2171.30642949 47.6571238 2171.31586682 39.0912421 2171.31958853 C34.21949749 2171.32194513 29.34781608 2171.32746014 24.4760919 2171.34221028 C-26.25258858 2171.49052518 -26.25258858 2171.49052518 -47.353158 2166.87863445 C-48.37651249 2166.66392498 -49.39986698 2166.44921551 -50.45423222 2166.22799969 C-82.88854266 2159.17453542 -113.48092693 2144.77571072 -139.478158 2124.12863445 C-140.71952518 2123.19277508 -140.71952518 2123.19277508 -141.9859705 2122.23800945 C-156.5395243 2110.93341414 -169.82344656 2097.16283602 -180.478158 2082.12863445 C-180.87196659 2081.57917156 -181.26577518 2081.02970867 -181.67151737 2080.46359539 C-190.12379567 2068.55732735 -197.20903983 2055.77315467 -204.478158 2043.12863445 C-205.71197934 2040.99159595 -206.94635509 2038.85487745 -208.181283 2036.7184782 C-211.32083012 2031.285074 -214.45480241 2025.84847887 -217.58704472 2020.41086102 C-220.71495948 2014.98203503 -223.84674248 2009.55544164 -226.978158 2004.12863445 C-228.22817679 2001.96197863 -229.47817678 1999.79531196 -230.728158 1997.62863445 C-231.346908 1996.55613445 -231.965658 1995.48363445 -232.603158 1994.37863445 C-268.22815801 1932.62863444 -268.22815801 1932.62863444 -270.10340214 1929.37814617 C-271.35251318 1927.21306375 -272.60169929 1925.04802463 -273.85096073 1922.88302898 C-276.99018109 1917.44247739 -280.12806363 1912.0011623 -283.26331425 1906.55832195 C-289.28563128 1896.10657246 -295.32485137 1885.66563897 -301.415658 1875.25363445 C-306.83774498 1865.98299515 -312.18139811 1856.66926747 -317.49839115 1847.33816814 C-322.11299828 1839.24155602 -326.76900686 1831.17074644 -331.478158 1823.12863445 C-336.53446722 1814.49365888 -341.52422922 1805.82257126 -346.478158 1797.12863445 C-352.01801733 1787.4073894 -357.61190731 1777.71968577 -363.26160526 1768.06173992 C-369.41582541 1757.53778821 -375.50185796 1746.97483308 -381.58704472 1736.41086102 C-384.71495948 1730.98203503 -387.84674248 1725.55544164 -390.978158 1720.12863445 C-392.22817679 1717.96197863 -393.47817678 1715.79531196 -394.728158 1713.62863445 C-395.346908 1712.55613445 -395.965658 1711.48363445 -396.603158 1710.37863445 C-522.22815799 1492.62863447 -522.22815799 1492.62863447 -524.10340214 1489.37814617 C-525.35251318 1487.21306375 -526.60169929 1485.04802463 -527.85096073 1482.88302898 C-530.99018109 1477.44247739 -534.12806363 1472.0011623 -537.26331425 1466.55832195 C-543.28563128 1456.10657246 -549.32485137 1445.66563897 -555.415658 1435.25363445 C-560.83736977 1425.98363668 -566.18020715 1416.67031693 -571.49738407 1407.3401823 C-576.69860929 1398.21580605 -581.95843677 1389.12730671 -587.26160526 1380.06173992 C-593.41582541 1369.53778821 -599.50185796 1358.97483308 -605.58704472 1348.41086102 C-608.71495948 1342.98203503 -611.84674248 1337.55544164 -614.978158 1332.12863445 C-616.22817679 1329.96197863 -617.47817678 1327.79531196 -618.728158 1325.62863445 C-619.346908 1324.55613445 -619.965658 1323.48363445 -620.603158 1322.37863445 C-632.478158 1301.79530112 -644.353158 1281.21196779 -656.228158 1260.62863445 C-656.8471497 1259.55573162 -657.4661414 1258.48282879 -658.10389042 1257.37741375 C-659.3515054 1255.21484862 -660.59906416 1253.05225106 -661.8465662 1250.88962078 C-665.00759249 1245.40993074 -668.16965109 1239.93084088 -671.33362675 1234.4528532 C-674.46502519 1229.03074021 -677.59327432 1223.60682271 -680.71888065 1218.18136883 C-681.86350962 1216.19518501 -683.00897324 1214.20948189 -684.15540409 1212.22433758 C-687.62751685 1206.20978626 -691.06747787 1200.1782166 -694.478158 1194.12863445 C-694.88759647 1193.40982098 -695.29703495 1192.6910075 -695.71888065 1191.9504118 C-706.52246326 1172.88500417 -713.87811993 1152.53282084 -718.478158 1131.12863445 C-718.79357548 1129.68738201 -718.79357548 1129.68738201 -719.11536503 1128.21701336 C-724.72187225 1101.45404263 -725.14749273 1070.94718556 -719.478158 1044.12863445 C-719.27948124 1043.18101238 -719.08080448 1042.23339031 -718.87610722 1041.25705242 C-714.38285799 1020.52752286 -707.59267082 1000.78183229 -697.478158 982.12863445 C-697.08289921 981.39032391 -696.68764042 980.65201336 -696.28040409 979.89132977 C-689.84887951 967.89612493 -683.03129527 956.13324349 -676.14612675 944.39425945 C-672.41489829 938.0309241 -668.72337742 931.64513891 -665.040658 925.25363445 C-664.41836308 924.17388348 -663.79606815 923.0941325 -663.15491581 921.9816618 C-661.89287074 919.79148911 -660.63098948 917.60122202 -659.36927128 915.41086102 C-656.24135651 909.98203503 -653.10957352 904.55544164 -649.978158 899.12863445 C-648.72813921 896.96197863 -647.47813921 894.79531196 -646.228158 892.62863445 C-628.728158 862.29530112 -611.228158 831.96196779 -593.728158 801.62863445 C-593.10932743 800.55597332 -592.49049686 799.48331219 -591.85291386 798.37814617 C-590.60380282 796.21306375 -589.3546167 794.04802463 -588.10535526 791.88302898 C-584.9661349 786.44247739 -581.82825237 781.0011623 -578.69300175 775.55832195 C-572.67068471 765.10657246 -566.63146462 754.66563897 -560.540658 744.25363445 C-555.46540676 735.57601204 -550.45557033 726.86257877 -545.478158 718.12863445 C-539.9381407 708.40747829 -534.34440991 698.71968787 -528.69471073 689.06173992 C-522.54049058 678.53778821 -516.45445804 667.97483308 -510.36927128 657.41086102 C-507.24135651 651.98203503 -504.10957352 646.55544164 -500.978158 641.12863445 C-499.72813921 638.96197863 -498.47813921 636.79531196 -497.228158 634.62863445 C-474.728158 595.62863445 -452.228158 556.62863445 -429.728158 517.62863445 C-429.10932743 516.55597332 -428.49049686 515.48331219 -427.85291386 514.37814617 C-426.60380282 512.21306375 -425.3546167 510.04802463 -424.10535526 507.88302898 C-420.9661349 502.44247739 -417.82825237 497.0011623 -414.69300175 491.55832195 C-408.67068471 481.10657246 -402.63146462 470.66563897 -396.540658 460.25363445 C-391.46540676 451.57601204 -386.45557033 442.86257877 -381.478158 434.12863445 C-375.9381407 424.40747829 -370.34440991 414.71968787 -364.69471073 405.06173992 C-358.54049058 394.53778821 -352.45445804 383.97483308 -346.36927128 373.41086102 C-343.24135651 367.98203503 -340.10957352 362.55544164 -336.978158 357.12863445 C-335.72813921 354.96197863 -334.47813921 352.79531196 -333.228158 350.62863445 C-310.728158 311.62863445 -288.228158 272.62863445 -265.728158 233.62863445 C-265.10932743 232.55597332 -264.49049686 231.48331219 -263.85291386 230.37814617 C-262.60380282 228.21306375 -261.3546167 226.04802463 -260.10535526 223.88302898 C-256.9661349 218.44247739 -253.82825237 213.0011623 -250.69300175 207.55832195 C-244.67068471 197.10657246 -238.63146462 186.66563897 -232.540658 176.25363445 C-227.46540185 167.57600364 -222.45613933 158.86225964 -217.478158 150.12863445 C-210.22766064 137.41312865 -202.91148435 124.73833374 -195.478158 112.12863445 C-194.98476933 111.28558758 -194.49138065 110.4425407 -193.98304081 109.57394695 C-186.05635434 96.06242693 -177.21731417 83.96250504 -166.5953455 72.43332195 C-164.48873705 70.14015039 -162.45312519 67.79571716 -160.415658 65.44113445 C-156.71580195 61.28333944 -152.74905022 57.68647337 -148.478158 54.12863445 C-147.13431034 52.9704118 -147.13431034 52.9704118 -145.76331425 51.7887907 C-104.67532764 16.74791908 -53.62521713 -0.07117558 0 0 Z " fill="#4485F4" transform="translate(753.4781579971313,157.87136554718018)"/>
<path d="M0 0 C3.67651668 1.5455461 6.01670688 3.76767384 8.82212043 6.5748741 C9.2956718 7.04599353 9.76922316 7.51711296 10.25712457 8.00250873 C11.85193278 9.59158242 13.43947787 11.1877209 15.02718735 12.783885 C16.18187148 13.93739373 17.33699472 15.09046303 18.49251831 16.24313083 C21.68564926 19.43093562 24.87247187 22.62498377 28.05835791 25.82002688 C31.51831909 29.28773589 34.98406817 32.74965182 38.44910645 36.21228629 C44.52767015 42.28823846 50.60249933 48.3679047 56.67493439 54.44998169 C65.70491103 63.49425621 74.74060172 72.53280566 83.77751696 81.5701466 C98.97919579 96.77284751 114.17627762 111.98013584 129.37084198 127.18994713 C144.42572994 142.25988263 159.4828794 157.32755216 174.54303741 172.39222145 C175.01065528 172.85998088 175.47827314 173.32774031 175.96006124 173.80967426 C180.70781009 178.55885354 185.45560783 183.30798394 190.20343801 188.05708192 C200.3454166 198.20177094 210.48706853 208.34678651 220.62857437 218.49194813 C221.35393617 219.21757032 221.35393617 219.21757032 222.09395174 219.95785155 C245.11614846 242.98835682 268.1350722 266.02213249 291.15345451 289.05645007 C292.68104488 290.58509787 294.20863619 292.11374473 295.73622783 293.64239127 C297.77518452 295.682756 299.81414101 297.72312094 301.85309727 299.76348611 C306.44947371 304.36303827 311.04585141 308.96258916 315.64223314 313.56213604 C316.66504782 314.58565519 317.68786226 315.60917459 318.71067644 316.63269425 C342.22986856 340.16810313 365.75026287 363.70231039 389.27121204 387.23596329 C390.79745766 388.76303362 392.32370196 390.29010528 393.84994606 391.81717713 C416.84058816 414.82027341 439.8318344 437.82276566 462.82425308 460.82408619 C463.80014322 461.80035551 464.77603336 462.77662483 465.7519235 463.75289416 C474.44253806 472.44687924 483.13317855 481.14083841 491.82394794 489.83466873 C497.52324061 495.53597027 503.22249836 501.23730671 508.92169952 506.93869972 C509.38887241 507.40605212 509.8560453 507.87340451 510.33737493 508.35491909 C525.85358883 523.87714772 541.36754031 539.40163477 556.88035289 554.92726251 C571.99219923 570.05158266 587.10564944 585.1742983 602.22082064 600.29529562 C611.20569416 609.28376391 620.18911937 618.27367432 629.17053084 627.26560197 C635.16688172 633.26870703 641.16503331 639.27000881 647.16465823 645.26984171 C650.58511321 648.69052509 654.00475771 652.11200824 657.42218801 655.53571364 C660.53184511 658.65105436 663.64380644 661.76407393 666.75761138 664.8752687 C667.87597237 665.99350156 668.993494 667.11257468 670.11006431 668.23259557 C675.38650175 673.52448422 680.67641129 678.75275845 686.36790968 683.60291498 C690.44276644 687.09103159 694.23566223 690.89281825 698.05786133 694.65283203 C699.07099522 695.64410209 700.0903577 696.62904145 701.11547852 697.60791016 C702.61372325 699.03952935 704.09156694 700.48964047 705.56640625 701.9453125 C706.88040405 703.22172607 706.88040405 703.22172607 708.22094727 704.52392578 C710 707 710 707 709.94604492 709.53076172 C708.95451963 712.11870669 707.81448792 714.24340695 706.296875 716.5625 C705.73556885 717.43052246 705.1742627 718.29854492 704.59594727 719.19287109 C703.68220337 720.5823999 703.68220337 720.5823999 702.75 722 C701.4610826 723.99143915 700.17334894 725.98364487 698.88671875 727.9765625 C698.23364746 728.98493164 697.58057617 729.99330078 696.90771484 731.03222656 C694.07055634 735.44590698 691.31245455 739.90664501 688.5625 744.375 C683.94008915 751.86895127 679.29418728 759.34759459 674.625 766.8125 C673.99787109 767.81539062 673.37074219 768.81828125 672.72460938 769.8515625 C669.57764385 774.88284208 666.42831084 779.91263197 663.27734375 784.94140625 C656.05448776 796.47518181 648.88930511 808.04228921 641.76977539 819.64013672 C637.42566507 826.70799837 633.02568988 833.73688806 628.57739258 840.73950195 C624.32182017 847.4544218 620.15774714 854.2241768 616 861 C610.84309423 869.40359883 605.64285387 877.77552222 600.3605957 886.10083008 C596.76491654 891.77320361 593.21663456 897.4735108 589.6875 903.1875 C585.02102376 910.74241364 580.33348167 918.28368783 575.625 925.8125 C574.99803223 926.81514893 574.37106445 927.81779785 573.72509766 928.85083008 C570.57794086 933.88233594 567.42846657 938.91238344 564.27734375 943.94140625 C557.05448776 955.47518181 549.88930511 967.04228921 542.76977539 978.64013672 C538.42566507 985.70799837 534.02568988 992.73688806 529.57739258 999.73950195 C525.32182017 1006.4544218 521.15774714 1013.2241768 517 1020 C511.84309423 1028.40359883 506.64285387 1036.77552222 501.3605957 1045.10083008 C497.76491654 1050.77320361 494.21663456 1056.4735108 490.6875 1062.1875 C486.02102376 1069.74241364 481.33348167 1077.28368783 476.625 1084.8125 C475.99803223 1085.81514893 475.37106445 1086.81779785 474.72509766 1087.85083008 C471.57794086 1092.88233594 468.42846657 1097.91238344 465.27734375 1102.94140625 C458.05448776 1114.47518181 450.88930511 1126.04228921 443.76977539 1137.64013672 C439.42566507 1144.70799837 435.02568988 1151.73688806 430.57739258 1158.73950195 C426.32182017 1165.4544218 422.15774714 1172.2241768 418 1179 C412.84309423 1187.40359883 407.64285387 1195.77552222 402.3605957 1204.10083008 C398.76491654 1209.77320361 395.21663456 1215.4735108 391.6875 1221.1875 C387.02102376 1228.74241364 382.33348167 1236.28368783 377.625 1243.8125 C376.99803223 1244.81514893 376.37106445 1245.81779785 375.72509766 1246.85083008 C372.57794086 1251.88233594 369.42846657 1256.91238344 366.27734375 1261.94140625 C359.05448776 1273.47518181 351.88930511 1285.04228921 344.76977539 1296.64013672 C340.42566507 1303.70799837 336.02568988 1310.73688806 331.57739258 1317.73950195 C326.6239509 1325.55559828 321.79331568 1333.44639859 316.95483398 1341.33398438 C312.21070534 1349.05845039 307.4081855 1356.74310776 302.54101562 1364.390625 C302.08533203 1365.10734375 301.62964844 1365.8240625 301.16015625 1366.5625 C300.76449463 1367.18253906 300.36883301 1367.80257812 299.96118164 1368.44140625 C298.94086367 1370.04423754 298.94086367 1370.04423754 298 1372 C278.58858946 1372.91725043 259.17698006 1373.83017694 239.76512909 1374.73806 C230.75038669 1375.1597745 221.73571289 1375.58286447 212.72119141 1376.00927734 C204.85738869 1376.38125431 196.99346584 1376.75056411 189.12939215 1377.11676931 C184.97159006 1377.31047584 180.81385683 1377.50545098 176.65626526 1377.70362854 C172.72977151 1377.89074804 168.80312438 1378.07425658 164.87634087 1378.2551899 C163.44782431 1378.32161382 162.01936439 1378.38927155 160.59097481 1378.45837212 C157.40162412 1378.61233699 154.2199994 1378.74198783 151.02715778 1378.79855072 C148.35691695 1378.87622027 146.18247715 1379.17290451 143.52863503 1379.73418701 C137.87841078 1380.57776051 133.53293322 1380.5806191 128.56738883 1377.48198459 C122.02639796 1372.37493687 116.27137681 1366.39299899 110.49102192 1360.45968373 C107.79136021 1357.70662374 105.04526323 1355.00053258 102.30488062 1352.28811395 C97.51215618 1347.53157598 92.74983914 1342.74620999 88.00636864 1337.94057274 C80.95303652 1330.79505994 73.8542323 1323.69605059 66.74549758 1316.60570614 C54.78789968 1304.67640825 42.8679834 1292.71011869 30.96928406 1280.72209549 C19.18858353 1268.85314392 7.39189617 1257.00047202 -4.42668152 1245.16923141 C-5.16173182 1244.43337152 -5.89678213 1243.69751163 -6.65410669 1242.93935296 C-10.38720916 1239.2022928 -14.12058881 1235.46550967 -17.85406822 1231.72882609 C-44.293465 1205.26560295 -70.69482848 1178.76473015 -97.07470703 1152.2421875 C-122.69883348 1126.47960012 -148.34253605 1100.73673945 -174.01123047 1075.01855469 C-175.19808937 1073.82938834 -175.19808937 1073.82938834 -176.40892523 1072.61619844 C-183.56519948 1065.44603547 -190.72164722 1058.27604567 -197.87825975 1051.10622034 C-226.73188358 1022.19893489 -255.57144028 993.27761382 -284.40625 964.3515625 C-285.13948426 963.6160255 -285.87271853 962.88048849 -286.62817201 962.12266249 C-304.38228061 944.31272819 -322.13237968 926.49882285 -339.86837029 908.67084362 C-341.17675256 907.35568621 -342.48513831 906.04053227 -343.7935276 904.72538185 C-344.43476041 904.0808328 -345.07599322 903.43628375 -345.73665732 902.77220291 C-350.1986643 898.28762227 -354.66323542 893.80560496 -359.12898827 889.32475471 C-364.44992315 883.985778 -369.76749072 878.64347797 -375.08036793 873.29648236 C-377.75871858 870.60109945 -380.43863155 867.90732052 -383.12284845 865.2177784 C-386.00461237 862.33018081 -388.87865001 859.43501925 -391.7518692 856.53891945 C-393.02287001 855.26893935 -393.02287001 855.26893935 -394.31954759 853.97330308 C-395.07659252 853.20766396 -395.83363746 852.44202484 -396.61362314 851.65318453 C-397.272649 850.9908908 -397.93167486 850.32859707 -398.61067119 849.64623383 C-400 848 -400 848 -400 846 C-401.32 845.34 -402.64 844.68 -404 844 C-404 843.34 -404 842.68 -404 842 C-405.32 841.34 -406.64 840.68 -408 840 C-408 839.34 -408 838.68 -408 838 C-408.66 838 -409.32 838 -410 838 C-410 837.34 -410 836.68 -410 836 C-410.66 836 -411.32 836 -412 836 C-412 835.34 -412 834.68 -412 834 C-412.66 834 -413.32 834 -414 834 C-414 833.34 -414 832.68 -414 832 C-414.66 832 -415.32 832 -416 832 C-416 831.34 -416 830.68 -416 830 C-416.66 830 -417.32 830 -418 830 C-418 829.34 -418 828.68 -418 828 C-418.66 828 -419.32 828 -420 828 C-420 827.34 -420 826.68 -420 826 C-420.66 826 -421.32 826 -422 826 C-422 825.34 -422 824.68 -422 824 C-422.66 824 -423.32 824 -424 824 C-424 823.34 -424 822.68 -424 822 C-424.66 822 -425.32 822 -426 822 C-426 821.34 -426 820.68 -426 820 C-426.66 820 -427.32 820 -428 820 C-429.296875 818.64453125 -429.296875 818.64453125 -430.75 816.8125 C-432.732568 814.41229661 -434.51576175 812.57202749 -436.9375 810.5625 C-439.3630122 808.53298979 -441.19764794 806.70219337 -443.21881962 804.31994629 C-446.83432144 800.14129126 -450.6469121 796.21577203 -454.56138611 792.31835938 C-455.29015585 791.58873521 -456.01892559 790.85911104 -456.76977926 790.10737705 C-459.19172974 787.68379056 -461.6172164 785.26377553 -464.04272461 782.84375 C-465.78779221 781.0989647 -467.53263918 779.35395872 -469.27728271 777.60874939 C-473.02330047 773.86250454 -476.77083679 770.11778905 -480.51978874 766.3744812 C-485.94002537 760.96239949 -491.35747213 755.54753211 -496.77425952 750.13199842 C-505.56442749 741.34401471 -514.35682256 732.55826274 -523.15063477 723.77392578 C-531.68892121 715.24482965 -540.22614832 706.71467545 -548.76196289 698.18310547 C-549.28882204 697.65650904 -549.8156812 697.12991261 -550.35850578 696.58735871 C-553.00180918 693.94536042 -555.64509188 691.30334141 -558.28836429 688.6613121 C-580.18903385 666.77099567 -602.09336196 644.88434358 -624 623 C-623.34 622.67 -622.68 622.34 -622 622 C-620.90558594 622.85658203 -620.90558594 622.85658203 -619.7890625 623.73046875 C-579.49148714 655.0986173 -535.97240011 679.55740364 -488 697 C-487.08089844 697.33499512 -486.16179687 697.66999023 -485.21484375 698.01513672 C-475.20361871 701.61862243 -465.06714749 704.36624616 -454.71875 706.82421875 C-451.5428016 707.58601386 -448.44451398 708.47277148 -445.33203125 709.4609375 C-391.35090443 725.89519166 -329.00429505 724.96669037 -274 716 C-272.47722119 715.75695075 -270.95443479 715.51394912 -269.43164062 715.27099609 C-245.85726566 711.46592689 -222.95852596 706.18702618 -200.52441406 697.92089844 C-197.93836585 696.97751605 -195.34234909 696.0677597 -192.7421875 695.1640625 C-151.35428603 680.66012961 -111.32011207 659.99007865 -76.97119141 632.55444336 C-73.61039492 629.92760874 -72.40942582 629 -68 629 C-66.40724099 630.09826636 -66.40724099 630.09826636 -64.83838081 631.6750145 C-64.23497277 632.27169174 -63.63156473 632.86836898 -63.0098716 633.48312736 C-62.35637258 634.14964198 -61.70287356 634.81615661 -61.02957153 635.50286865 C-60.32801622 636.2024174 -59.62646091 636.90196614 -58.90364635 637.62271333 C-56.54350049 639.9809464 -54.1979781 642.35321421 -51.85205078 644.72558594 C-50.16750968 646.41452731 -48.48207341 648.10257625 -46.79580688 649.78979492 C-42.68550302 653.90674393 -38.58440273 658.03270021 -34.48695816 662.16244432 C-29.71425865 666.97155554 -24.92942216 671.76851332 -20.14354645 676.56450656 C-11.60209623 685.12447926 -3.06888424 693.69261378 5.45849609 702.26660156 C5.96904597 702.77993806 6.47959584 703.29327456 7.00561692 703.82216671 C7.51679168 704.33613254 8.02796644 704.85009836 8.55463135 705.37963891 C15.79461274 712.65911824 23.03650722 719.93668702 30.28076172 727.21191406 C31.04474161 727.9791665 31.04474161 727.9791665 31.82415543 728.76191899 C40.32084922 737.29467729 48.82162014 745.82336624 57.32448208 754.34997773 C63.03507316 760.0770908 68.73969283 765.81007371 74.43999076 771.54743147 C77.98810585 775.1168352 81.54028167 778.68217727 85.09347916 782.246521 C86.74078629 783.90076876 88.38634726 785.55675748 90.0300293 787.21460724 C92.27395143 789.47744267 94.52398706 791.73402195 96.77560425 793.98919678 C97.74916062 794.97558439 97.74916062 794.97558439 98.74238479 795.98189902 C104.33576792 801.5613562 109.42926526 806.06617903 117.6875 806.3125 C126.17456797 806.14079631 130.66674984 802.61530534 136.5 796.6875 C137.3559375 795.78386719 138.211875 794.88023437 139.09375 793.94921875 C141.11737035 791.83839774 143.225882 789.91742645 145.453125 788.0234375 C151.36076329 782.91916543 156.82938514 777.3566319 162.34667969 771.83862305 C164.25437117 769.93313387 166.16994904 768.03581374 168.0859375 766.13867188 C169.31298897 764.91455244 170.53956813 763.68995935 171.765625 762.46484375 C172.33234924 761.90530502 172.89907349 761.3457663 173.48297119 760.76927185 C180.05305745 754.16136458 184.07880563 747.97118874 184.4609375 738.57421875 C183.09613978 730.95217046 178.27123156 725.70254376 172.90653992 720.45916748 C172.19187854 719.74461623 171.47721717 719.03006499 170.74089938 718.29386067 C168.35576134 715.91382188 165.95666113 713.54838422 163.55737305 711.18261719 C161.84000107 709.47456328 160.12354758 707.76558545 158.40794373 706.05575562 C154.71840932 702.38223065 151.02299735 698.71473001 147.32242393 695.05233002 C141.97068601 689.75534175 136.63250171 684.44485607 131.29796562 679.13055053 C122.63961825 670.50530377 113.97419207 661.88721023 105.30249023 653.27539062 C104.78412296 652.76059691 104.26575569 652.24580319 103.73168031 651.71540967 C97.94144314 645.96531281 92.15004353 640.21638789 86.35797119 634.46813965 C84.25382546 632.37984183 82.14972134 630.2915021 80.0456543 628.203125 C79.26677669 627.43006426 79.26677669 627.43006426 78.47216418 626.64138612 C69.82419067 618.05743456 61.18591744 609.46378993 52.55496436 600.8627255 C47.23132829 595.55840754 41.89924251 590.26286325 36.55606285 584.97823122 C32.4698589 580.9355062 28.39638341 576.88015485 24.32756996 572.81993484 C22.65286551 571.15302577 20.97382791 569.4904577 19.2902832 567.83247757 C17.00145156 565.57723955 14.72829757 563.3073092 12.45854187 561.03289795 C11.7813325 560.37298127 11.10412314 559.71306459 10.40639228 559.03315043 C9.80473929 558.424009 9.2030863 557.81486757 8.58320141 557.1872673 C8.05641928 556.66455207 7.52963715 556.14183683 6.98689193 555.60328174 C6 554 6 554 6.22209483 551.96339345 C7.39713149 548.99766013 9.30836996 546.84899785 11.3125 544.375 C59.13000143 483.75712127 90.29942124 402.92450974 97 326 C97.08878418 325.02224609 97.17756836 324.04449219 97.26904297 323.03710938 C101.39342087 276.43789872 99.09672545 228.58534815 88 183 C87.83113281 182.29939453 87.66226563 181.59878906 87.48828125 180.87695312 C86.53629893 176.95092076 85.55466771 173.03361596 84.53881836 169.12353516 C84.14049651 167.55371031 83.75832553 165.97976725 83.38500977 164.40380859 C81.36058141 155.96455702 78.80425402 147.72862191 76.0625 139.5 C75.8248996 138.78578888 75.58729919 138.07157776 75.34249878 137.33572388 C59.48606243 89.96331582 34.91792174 45.93698297 4.03125 6.7421875 C2.3859216 4.52099415 1.10771351 2.51643613 0 0 Z " fill="#407BDD" transform="translate(1592,963)"/>
<path d="M0 0 C1.88111481 -0.0049926 1.88111481 -0.0049926 3.80023193 -0.01008606 C6.44233844 -0.01511761 9.08445121 -0.01749556 11.7265625 -0.01733398 C15.68237021 -0.01721368 19.6379879 -0.03765099 23.59375 -0.05664062 C55.60309793 -0.1276048 86.1921733 3.67364737 117.484375 10.16796875 C118.31807617 10.33989746 119.15177734 10.51182617 120.01074219 10.68896484 C176.35976227 22.66164247 231.18268831 49.3753674 277.484375 83.16796875 C278.19916016 83.68456055 278.91394531 84.20115234 279.65039062 84.73339844 C289.72994602 92.03287181 299.20484382 99.88039701 308.484375 108.16796875 C309.38800781 108.97105469 310.29164063 109.77414062 311.22265625 110.6015625 C313.65494249 112.77781861 316.07182352 114.96986629 318.484375 117.16796875 C319.46148438 118.05226563 320.43859375 118.9365625 321.4453125 119.84765625 C329.58250787 127.23283593 337.51805911 134.73229861 344.6796875 143.08203125 C346.70088776 145.41822376 348.77816339 147.69761726 350.859375 149.98046875 C408.03027631 213.57830024 444.39998754 295.75226995 456.20068359 380.15332031 C456.46387002 382.02235166 456.74861093 383.8883133 457.03515625 385.75390625 C466.29959069 450.95855166 459.32161596 519.34951585 437.796875 581.48046875 C437.33758606 582.81652161 437.33758606 582.81652161 436.86901855 584.17956543 C432.05047453 598.16729266 426.80224752 611.78021993 420.484375 625.16796875 C419.65532252 626.97092797 418.8272138 628.77432143 418 630.578125 C405.31692795 657.98372089 389.94439081 686.94359397 369.5546875 709.41015625 C367.22988225 711.86021443 367.22988225 711.86021443 367.67797482 714.14095324 C368.58774126 716.42779635 369.57475445 717.62725845 371.31646538 719.35802937 C371.92271716 719.9677875 372.52896894 720.57754563 373.15359199 721.20578128 C373.82565779 721.86638008 374.4977236 722.52697888 375.19015503 723.20759583 C375.89943087 723.91661267 376.60870671 724.62562952 377.33947575 725.35613173 C379.72692948 727.73914714 382.12493379 730.11125911 384.52294922 732.48364258 C386.23316385 734.18646547 387.94269153 735.88997852 389.65158081 737.59413147 C393.33768323 741.26734315 397.02820444 744.93605364 400.72249985 748.60102272 C406.06912158 753.90556746 411.40554561 759.22027893 416.73914064 764.53791805 C425.39966665 773.17235522 434.06540521 781.80153854 442.73583984 790.42602539 C443.25485438 790.94229418 443.77386892 791.45856297 444.30861117 791.99047627 C450.09709786 797.74815309 455.88657871 803.50482912 461.67687988 809.26068115 C463.77533319 811.3466963 465.87376288 813.43273518 467.97216797 815.51879883 C468.48994627 816.03352734 469.00772456 816.54825586 469.54119311 817.0785822 C478.17832721 825.66528633 486.80765392 834.25979166 495.43104565 842.86029643 C500.74946761 848.16391161 506.07459992 853.46061142 511.4085858 858.74857416 C515.49700293 862.80278167 519.57510423 866.86723781 523.64949417 870.93553734 C525.32176871 872.6019179 526.99749406 874.26484366 528.67689514 875.92404175 C530.96881186 878.18934093 533.24806811 880.46667364 535.52462769 882.74739075 C536.19223204 883.40129738 536.8598364 884.05520402 537.5476712 884.728926 C542.31713515 889.54608011 545.90846988 894.51416173 545.921875 901.60546875 C545.29373972 915.90762588 529.73232312 927.0828371 520.28198242 936.50073242 C518.41794256 938.35938983 516.55933988 940.22336489 514.70117188 942.08789062 C508.79723727 947.99507534 502.86718899 953.77360373 496.484375 959.16796875 C495.70707031 959.87566406 494.92976563 960.58335937 494.12890625 961.3125 C488.14390242 966.76153334 484.17018934 968.364616 476.08203125 968.53125 C462.74897522 966.66662713 450.14434852 948.9634221 441.11083984 939.90795898 C439.47413264 938.2709693 437.83720439 936.63420059 436.20007324 934.99763489 C431.78120966 930.57905688 427.36542467 926.157414 422.95020628 921.73519397 C418.32623925 917.10495339 413.69941874 912.47756593 409.07290649 907.84986877 C401.31594952 900.09032859 393.5609045 892.32888124 385.80712891 884.56616211 C377.82523665 876.57507285 369.84228138 868.58504796 361.85791016 860.59643555 C361.36469613 860.10295879 360.87148209 859.60948204 360.36332218 859.10105144 C357.88868997 856.62511407 355.414037 854.14919742 352.93937373 851.67329109 C332.45115783 831.17473005 311.96660643 810.67250946 291.484375 790.16796875 C288.65248514 791.54958649 286.21384968 793.01433453 283.7109375 794.93359375 C282.9802002 795.4867627 282.24946289 796.03993164 281.49658203 796.60986328 C280.70880371 797.20653809 279.92102539 797.80321289 279.109375 798.41796875 C246.07921142 823.05160786 209.7441961 841.28473959 171.484375 856.16796875 C170.40994141 856.58771973 169.33550781 857.0074707 168.22851562 857.43994141 C156.38103919 862.02938187 144.55972906 865.66317761 132.18115234 868.50976562 C128.89147603 869.31267775 125.63549019 870.22098287 122.37109375 871.12109375 C108.63447177 874.84640397 94.52715249 876.94628135 80.484375 879.16796875 C79.45440399 879.33419739 79.45440399 879.33419739 78.40362549 879.50378418 C25.07893353 888.07183131 -31.07321757 884.66703647 -83.515625 872.16796875 C-84.60858887 871.90790039 -85.70155273 871.64783203 -86.82763672 871.37988281 C-145.86379007 857.00999237 -201.31676677 830.02617863 -249.515625 793.16796875 C-250.5509436 792.3785791 -250.5509436 792.3785791 -251.60717773 791.57324219 C-258.40596938 786.35808621 -264.99643449 780.9976043 -271.30859375 775.1953125 C-273.24391785 773.41755461 -275.20965516 771.69220623 -277.203125 769.98046875 C-319.91672628 732.58462506 -353.17568109 686.82967871 -378.515625 636.16796875 C-378.94681641 635.31879883 -379.37800781 634.46962891 -379.82226562 633.59472656 C-391.6777904 610.16595142 -400.32390217 585.38339202 -407.515625 560.16796875 C-407.79245117 559.20761719 -408.06927734 558.24726562 -408.35449219 557.2578125 C-414.34531514 536.24295949 -417.88288568 514.80367884 -420.765625 493.16796875 C-420.92885254 491.96591797 -421.09208008 490.76386719 -421.26025391 489.52539062 C-423.41167056 472.59816354 -423.70238332 455.57660715 -423.70092773 438.53173828 C-423.70312387 435.66944694 -423.7214136 432.80753688 -423.74023438 429.9453125 C-423.77585529 418.31701515 -423.140901 406.93270324 -421.77542114 395.38580322 C-421.53655938 393.34668195 -421.31982351 391.30500088 -421.10522461 389.26318359 C-415.62041087 337.13093072 -399.50989574 286.67357926 -375.52490234 240.12890625 C-374.84647635 238.81078395 -374.17238548 237.49042222 -373.50244141 236.16796875 C-357.49902571 204.60125026 -336.73092898 174.87091621 -312.8515625 148.75 C-311.58467136 147.3496404 -310.32378592 145.94326468 -309.09765625 144.50708008 C-304.1076706 138.67766461 -298.76079467 133.22699152 -293.33789062 127.80493164 C-291.77702173 126.24188141 -290.22434612 124.6709951 -288.671875 123.09960938 C-283.01298547 117.40940234 -277.22031761 112.11150724 -270.93652344 107.10083008 C-268.40216373 105.07738052 -265.96679996 102.96959466 -263.53808594 100.82226562 C-215.11890577 58.14878676 -152.70775179 27.7361262 -90.23095703 12.87890625 C-88.32691983 12.38038473 -86.4425811 11.80318021 -84.57910156 11.16967773 C-78.90060743 9.31289885 -72.99970558 8.35751111 -67.140625 7.23046875 C-66.45599182 7.0979068 -65.77135864 6.96534485 -65.065979 6.82876587 C-43.55214595 2.68638387 -21.93254853 0.02091608 0 0 Z " fill="#3F7CE2" transform="translate(1231.515625,801.83203125)"/>
<path d="M0 0 C1.88111481 -0.0049926 1.88111481 -0.0049926 3.80023193 -0.01008606 C6.44233844 -0.01511761 9.08445121 -0.01749556 11.7265625 -0.01733398 C15.68237021 -0.01721368 19.6379879 -0.03765099 23.59375 -0.05664062 C55.60309793 -0.1276048 86.1921733 3.67364737 117.484375 10.16796875 C118.31807617 10.33989746 119.15177734 10.51182617 120.01074219 10.68896484 C176.35976227 22.66164247 231.18268831 49.3753674 277.484375 83.16796875 C278.19916016 83.68456055 278.91394531 84.20115234 279.65039062 84.73339844 C289.72994602 92.03287181 299.20484382 99.88039701 308.484375 108.16796875 C309.38800781 108.97105469 310.29164063 109.77414062 311.22265625 110.6015625 C313.65494249 112.77781861 316.07182352 114.96986629 318.484375 117.16796875 C319.46148438 118.05226563 320.43859375 118.9365625 321.4453125 119.84765625 C329.58250787 127.23283593 337.51805911 134.73229861 344.6796875 143.08203125 C346.70088776 145.41822376 348.77816339 147.69761726 350.859375 149.98046875 C408.03027631 213.57830024 444.39998754 295.75226995 456.20068359 380.15332031 C456.46387002 382.02235166 456.74861093 383.8883133 457.03515625 385.75390625 C466.29959069 450.95855166 459.32161596 519.34951585 437.796875 581.48046875 C437.33758606 582.81652161 437.33758606 582.81652161 436.86901855 584.17956543 C432.05047453 598.16729266 426.80224752 611.78021993 420.484375 625.16796875 C419.65532252 626.97092797 418.8272138 628.77432143 418 630.578125 C405.31692795 657.98372089 389.94439081 686.94359397 369.5546875 709.41015625 C367.22988225 711.86021443 367.22988225 711.86021443 367.67797482 714.14095324 C368.58774126 716.42779635 369.57475445 717.62725845 371.31646538 719.35802937 C371.92271716 719.9677875 372.52896894 720.57754563 373.15359199 721.20578128 C373.82565779 721.86638008 374.4977236 722.52697888 375.19015503 723.20759583 C375.89943087 723.91661267 376.60870671 724.62562952 377.33947575 725.35613173 C379.72692948 727.73914714 382.12493379 730.11125911 384.52294922 732.48364258 C386.23316385 734.18646547 387.94269153 735.88997852 389.65158081 737.59413147 C393.33768323 741.26734315 397.02820444 744.93605364 400.72249985 748.60102272 C406.06912158 753.90556746 411.40554561 759.22027893 416.73914064 764.53791805 C425.39966665 773.17235522 434.06540521 781.80153854 442.73583984 790.42602539 C443.25485438 790.94229418 443.77386892 791.45856297 444.30861117 791.99047627 C450.09709786 797.74815309 455.88657871 803.50482912 461.67687988 809.26068115 C463.77533319 811.3466963 465.87376288 813.43273518 467.97216797 815.51879883 C468.48994627 816.03352734 469.00772456 816.54825586 469.54119311 817.0785822 C478.17832721 825.66528633 486.80765392 834.25979166 495.43104565 842.86029643 C500.74946761 848.16391161 506.07459992 853.46061142 511.4085858 858.74857416 C515.49700293 862.80278167 519.57510423 866.86723781 523.64949417 870.93553734 C525.32176871 872.6019179 526.99749406 874.26484366 528.67689514 875.92404175 C530.96881186 878.18934093 533.24806811 880.46667364 535.52462769 882.74739075 C536.19223204 883.40129738 536.8598364 884.05520402 537.5476712 884.728926 C542.31713515 889.54608011 545.90846988 894.51416173 545.921875 901.60546875 C545.29373972 915.90762588 529.73232312 927.0828371 520.28198242 936.50073242 C518.41794256 938.35938983 516.55933988 940.22336489 514.70117188 942.08789062 C508.79723727 947.99507534 502.86718899 953.77360373 496.484375 959.16796875 C495.70707031 959.87566406 494.92976563 960.58335937 494.12890625 961.3125 C488.14390242 966.76153334 484.17018934 968.364616 476.08203125 968.53125 C462.74897522 966.66662713 450.14434852 948.9634221 441.11083984 939.90795898 C439.47413264 938.2709693 437.83720439 936.63420059 436.20007324 934.99763489 C431.78120966 930.57905688 427.36542467 926.157414 422.95020628 921.73519397 C418.32623925 917.10495339 413.69941874 912.47756593 409.07290649 907.84986877 C401.31594952 900.09032859 393.5609045 892.32888124 385.80712891 884.56616211 C377.82523665 876.57507285 369.84228138 868.58504796 361.85791016 860.59643555 C361.36469613 860.10295879 360.87148209 859.60948204 360.36332218 859.10105144 C357.88868997 856.62511407 355.414037 854.14919742 352.93937373 851.67329109 C332.45115783 831.17473005 311.96660643 810.67250946 291.484375 790.16796875 C288.65248514 791.54958649 286.21384968 793.01433453 283.7109375 794.93359375 C282.9802002 795.4867627 282.24946289 796.03993164 281.49658203 796.60986328 C280.70880371 797.20653809 279.92102539 797.80321289 279.109375 798.41796875 C246.07921142 823.05160786 209.7441961 841.28473959 171.484375 856.16796875 C170.40994141 856.58771973 169.33550781 857.0074707 168.22851562 857.43994141 C156.38103919 862.02938187 144.55972906 865.66317761 132.18115234 868.50976562 C128.89147603 869.31267775 125.63549019 870.22098287 122.37109375 871.12109375 C108.63447177 874.84640397 94.52715249 876.94628135 80.484375 879.16796875 C79.45440399 879.33419739 79.45440399 879.33419739 78.40362549 879.50378418 C25.07893353 888.07183131 -31.07321757 884.66703647 -83.515625 872.16796875 C-84.60858887 871.90790039 -85.70155273 871.64783203 -86.82763672 871.37988281 C-145.86379007 857.00999237 -201.31676677 830.02617863 -249.515625 793.16796875 C-250.5509436 792.3785791 -250.5509436 792.3785791 -251.60717773 791.57324219 C-258.40596938 786.35808621 -264.99643449 780.9976043 -271.30859375 775.1953125 C-273.24391785 773.41755461 -275.20965516 771.69220623 -277.203125 769.98046875 C-319.91672628 732.58462506 -353.17568109 686.82967871 -378.515625 636.16796875 C-378.94681641 635.31879883 -379.37800781 634.46962891 -379.82226562 633.59472656 C-391.6777904 610.16595142 -400.32390217 585.38339202 -407.515625 560.16796875 C-407.79245117 559.20761719 -408.06927734 558.24726562 -408.35449219 557.2578125 C-414.34531514 536.24295949 -417.88288568 514.80367884 -420.765625 493.16796875 C-420.92885254 491.96591797 -421.09208008 490.76386719 -421.26025391 489.52539062 C-423.41167056 472.59816354 -423.70238332 455.57660715 -423.70092773 438.53173828 C-423.70312387 435.66944694 -423.7214136 432.80753688 -423.74023438 429.9453125 C-423.77585529 418.31701515 -423.140901 406.93270324 -421.77542114 395.38580322 C-421.53655938 393.34668195 -421.31982351 391.30500088 -421.10522461 389.26318359 C-415.62041087 337.13093072 -399.50989574 286.67357926 -375.52490234 240.12890625 C-374.84647635 238.81078395 -374.17238548 237.49042222 -373.50244141 236.16796875 C-357.49902571 204.60125026 -336.73092898 174.87091621 -312.8515625 148.75 C-311.58467136 147.3496404 -310.32378592 145.94326468 -309.09765625 144.50708008 C-304.1076706 138.67766461 -298.76079467 133.22699152 -293.33789062 127.80493164 C-291.77702173 126.24188141 -290.22434612 124.6709951 -288.671875 123.09960938 C-283.01298547 117.40940234 -277.22031761 112.11150724 -270.93652344 107.10083008 C-268.40216373 105.07738052 -265.96679996 102.96959466 -263.53808594 100.82226562 C-215.11890577 58.14878676 -152.70775179 27.7361262 -90.23095703 12.87890625 C-88.32691983 12.38038473 -86.4425811 11.80318021 -84.57910156 11.16967773 C-78.90060743 9.31289885 -72.99970558 8.35751111 -67.140625 7.23046875 C-66.45599182 7.0979068 -65.77135864 6.96534485 -65.065979 6.82876587 C-43.55214595 2.68638387 -21.93254853 0.02091608 0 0 Z M-21.515625 108.16796875 C-22.4742041 108.28624023 -23.4327832 108.40451172 -24.42041016 108.52636719 C-90.21145998 117.06107014 -152.99611655 144.8628153 -202.515625 189.16796875 C-203.26497314 189.83119141 -204.01432129 190.49441406 -204.78637695 191.17773438 C-217.91216289 202.86558668 -230.85059294 215.15828166 -241.515625 229.16796875 C-242.34449219 230.19148438 -243.17335938 231.215 -244.02734375 232.26953125 C-278.94435285 275.40972617 -301.96177474 326.77199619 -312.515625 381.16796875 C-312.83321777 382.80354736 -312.83321777 382.80354736 -313.15722656 384.47216797 C-328.35236895 467.034047 -307.90314787 558.79273357 -260.828125 627.88671875 C-252.37657087 639.95161849 -243.63323703 651.68218083 -233.83251953 662.68798828 C-232.63281912 664.03626116 -231.44651608 665.39642493 -230.26171875 666.7578125 C-221.37683114 676.85353194 -211.82705519 686.52710546 -201.515625 695.16796875 C-200.56558594 695.99554687 -199.61554688 696.823125 -198.63671875 697.67578125 C-190.93153673 704.36133372 -182.92615277 710.40202114 -174.515625 716.16796875 C-173.82839355 716.64379395 -173.14116211 717.11961914 -172.43310547 717.60986328 C-161.48625148 725.16951891 -150.28736371 731.97217557 -138.515625 738.16796875 C-137.85385254 738.51811035 -137.19208008 738.86825195 -136.51025391 739.22900391 C-71.99732037 773.11409409 5.6122868 786.25058444 77.484375 772.16796875 C78.65967773 771.94302734 79.83498047 771.71808594 81.04589844 771.48632812 C137.96256694 760.33342628 196.04105804 734.34764213 238.484375 694.16796875 C239.81180642 692.99459127 241.14500463 691.82769971 242.484375 690.66796875 C243.8178752 689.50149282 245.1511978 688.33481383 246.484375 687.16796875 C247.30035156 686.45769531 248.11632813 685.74742187 248.95703125 685.015625 C253.59217227 680.92579469 257.8641525 676.78103577 261.84765625 672.0546875 C263.44053225 670.21850825 265.10949656 668.54127842 266.859375 666.85546875 C271.47187948 662.29398755 275.4780132 657.2600852 279.484375 652.16796875 C279.98275879 651.53536133 280.48114258 650.90275391 280.99462891 650.25097656 C303.27084894 621.84760859 320.98516586 590.66235829 333.52050781 556.77050781 C334.38533884 554.43537643 335.27147098 552.10977035 336.1640625 549.78515625 C343.40412576 530.56470324 347.30662091 510.39953588 350.484375 490.16796875 C350.70143086 488.85019578 350.91883378 487.53247989 351.13671875 486.21484375 C356.41895424 452.43938177 355.02010642 415.6697814 348.484375 382.16796875 C348.28328125 381.1217334 348.0821875 380.07549805 347.875 378.99755859 C344.75687912 363.01945514 340.92611647 347.51506464 335.484375 332.16796875 C335.18305664 331.31219238 334.88173828 330.45641602 334.57128906 329.57470703 C317.34557873 281.22423438 289.73996079 240.11343694 254.484375 203.16796875 C253.659375 202.30042969 252.834375 201.43289063 251.984375 200.5390625 C247.40148493 195.83341645 242.54388309 191.63865597 237.4140625 187.5390625 C234.87701773 185.4857476 232.40593178 183.37471148 229.94604492 181.23022461 C215.97363949 169.1239598 200.49168964 159.34368507 184.484375 150.16796875 C183.58493164 149.65169922 182.68548828 149.13542969 181.75878906 148.60351562 C169.33441365 141.52517396 156.83552871 135.28913346 143.484375 130.16796875 C142.56914063 129.81138184 141.65390625 129.45479492 140.7109375 129.08740234 C116.79970877 119.84423802 91.90341114 112.73006302 66.484375 109.16796875 C65.43088867 109.0198877 64.37740234 108.87180664 63.29199219 108.71923828 C35.27619361 104.95707048 6.55109611 104.69170417 -21.515625 108.16796875 Z " fill="#FEFEFE" transform="translate(1231.515625,801.83203125)"/>
<path d="M0 0 C27.39 0 54.78 0 83 0 C83 122.1 83 244.2 83 370 C55.02557756 373.49680281 55.02557756 373.49680281 43.55419922 373.39111328 C41.49509628 373.37496153 39.43795371 373.39118558 37.37890625 373.41015625 C24.56520252 373.37459556 12.98637316 371.62329664 0 370 C0 247.9 0 125.8 0 0 Z " fill="#FEFEFE" transform="translate(1206,1111)"/>
<path d="M0 0 C5.925961 4.91888055 11.49466647 10.1781782 16.98242188 15.57739258 C18.00237104 16.57551851 19.02854802 17.56731628 20.06054688 18.55297852 C21.56539769 19.99117373 23.04982611 21.4478887 24.53125 22.91015625 C25.41361328 23.76746338 26.29597656 24.62477051 27.20507812 25.50805664 C29 28 29 28 28.94824219 30.53295898 C27.95451811 33.11833019 26.81362696 35.2447226 25.296875 37.5625 C24.73556885 38.43052246 24.1742627 39.29854492 23.59594727 40.19287109 C22.98678467 41.11922363 22.37762207 42.04557617 21.75 43 C20.4610826 44.99143915 19.17334894 46.98364487 17.88671875 48.9765625 C17.23364746 49.98493164 16.58057617 50.99330078 15.90771484 52.03222656 C13.07055634 56.44590698 10.31245455 60.90664501 7.5625 65.375 C2.94008915 72.86895127 -1.70581272 80.34759459 -6.375 87.8125 C-7.00212891 88.81539062 -7.62925781 89.81828125 -8.27539062 90.8515625 C-11.42235615 95.88284208 -14.57168916 100.91263197 -17.72265625 105.94140625 C-24.94551224 117.47518181 -32.11069489 129.04228921 -39.23022461 140.64013672 C-43.57433493 147.70799837 -47.97431012 154.73688806 -52.42260742 161.73950195 C-56.67817983 168.4544218 -60.84225286 175.2241768 -65 182 C-70.15690577 190.40359883 -75.35714613 198.77552222 -80.6394043 207.10083008 C-84.23508346 212.77320361 -87.78336544 218.4735108 -91.3125 224.1875 C-95.97897624 231.74241364 -100.66651833 239.28368783 -105.375 246.8125 C-106.31545166 248.31647339 -106.31545166 248.31647339 -107.27490234 249.85083008 C-110.42205914 254.88233594 -113.57153343 259.91238344 -116.72265625 264.94140625 C-123.94551224 276.47518181 -131.11069489 288.04228921 -138.23022461 299.64013672 C-142.57433493 306.70799837 -146.97431012 313.73688806 -151.42260742 320.73950195 C-155.67817983 327.4544218 -159.84225286 334.2241768 -164 341 C-169.15690577 349.40359883 -174.35714613 357.77552222 -179.6394043 366.10083008 C-183.23508346 371.77320361 -186.78336544 377.4735108 -190.3125 383.1875 C-194.97897624 390.74241364 -199.66651833 398.28368783 -204.375 405.8125 C-205.00196777 406.81514893 -205.62893555 407.81779785 -206.27490234 408.85083008 C-209.42205914 413.88233594 -212.57153343 418.91238344 -215.72265625 423.94140625 C-222.94551224 435.47518181 -230.11069489 447.04228921 -237.23022461 458.64013672 C-241.57433493 465.70799837 -245.97431012 472.73688806 -250.42260742 479.73950195 C-254.67817983 486.4544218 -258.84225286 493.2241768 -263 500 C-268.15690577 508.40359883 -273.35714613 516.77552222 -278.6394043 525.10083008 C-282.23508346 530.77320361 -285.78336544 536.4735108 -289.3125 542.1875 C-293.97897624 549.74241364 -298.66651833 557.28368783 -303.375 564.8125 C-304.00196777 565.81514893 -304.62893555 566.81779785 -305.27490234 567.85083008 C-308.42205914 572.88233594 -311.57153343 577.91238344 -314.72265625 582.94140625 C-321.94551224 594.47518181 -329.11069489 606.04228921 -336.23022461 617.64013672 C-340.57433493 624.70799837 -344.97431012 631.73688806 -349.42260742 638.73950195 C-354.3760491 646.55559828 -359.20668432 654.44639859 -364.04516602 662.33398438 C-368.78929466 670.05845039 -373.5918145 677.74310776 -378.45898438 685.390625 C-378.91466797 686.10734375 -379.37035156 686.8240625 -379.83984375 687.5625 C-380.23550537 688.18253906 -380.63116699 688.80257812 -381.03881836 689.44140625 C-382.05913633 691.04423754 -382.05913633 691.04423754 -383 693 C-402.41141054 693.91725043 -421.82301994 694.83017694 -441.23487091 695.73806 C-450.24961331 696.1597745 -459.26428711 696.58286447 -468.27880859 697.00927734 C-476.14261131 697.38125431 -484.00653416 697.75056411 -491.87060785 698.11676931 C-496.02840994 698.31047584 -500.18614317 698.50545098 -504.34373474 698.70362854 C-508.27022849 698.89074804 -512.19687562 699.07425658 -516.12365913 699.2551899 C-517.55217569 699.32161382 -518.98063561 699.38927155 -520.40902519 699.45837212 C-524.93850752 699.67703141 -529.467494 699.85724447 -534 700 C-534.71354582 700.02252586 -535.42709164 700.04505173 -536.16226006 700.06826019 C-538.34756606 700.12927389 -540.5322478 700.16897955 -542.71813965 700.20202637 C-544.01309105 700.22627434 -545.30804245 700.25052231 -546.6422348 700.27550507 C-550.8182744 699.93286048 -552.88813377 698.83433002 -555.671875 695.78320312 C-556.11015625 695.21537109 -556.5484375 694.64753906 -557 694.0625 C-557.50015625 693.49853516 -558.0003125 692.93457031 -558.515625 692.35351562 C-562 688.35701408 -562 688.35701408 -562 687 C-560.7625 686.98018066 -559.525 686.96036133 -558.25 686.93994141 C-511.6410054 686.16724361 -467.61560057 684.06127913 -425 663 C-424.31470215 662.66355469 -423.6294043 662.32710937 -422.92333984 661.98046875 C-402.84409272 652.00789189 -385.17068628 638.43356098 -369 623 C-368.19820312 622.23945313 -367.39640625 621.47890625 -366.5703125 620.6953125 C-348.25171333 602.88380258 -335.65534126 580.78091184 -323.04742432 558.82202148 C-321.40589507 555.96653923 -319.7554105 553.11625233 -318.10546875 550.265625 C-315.01071439 544.91509208 -311.92513835 539.55933803 -308.84277344 534.20166016 C-305.73292363 528.79856392 -302.61607978 523.39950482 -299.5 518 C-298.24996713 515.8333523 -296.99996711 513.66668564 -295.75 511.5 C-253.25 437.83333333 -210.75 364.16666667 -168.25 290.5 C-167.63116943 289.42733887 -167.01233887 288.35467773 -166.37475586 287.24951172 C-165.12564482 285.08442929 -163.87645871 282.91939018 -162.62719727 280.75439453 C-159.48797691 275.31384294 -156.35009437 269.87252784 -153.21484375 264.4296875 C-147.19252671 253.97793801 -141.15330663 243.53700452 -135.0625 233.125 C-129.98724877 224.44737759 -124.97741233 215.73394432 -120 207 C-114.4599827 197.27884383 -108.86625191 187.59105342 -103.21655273 177.93310547 C-97.06233258 167.40915375 -90.97630004 156.84619863 -84.89111328 146.28222656 C-81.76319852 140.85340058 -78.63141552 135.42680719 -75.5 130 C-74.24998121 127.83334417 -72.99998122 125.6666775 -71.75 123.5 C-59.25 101.83333333 -46.75 80.16666667 -34.25 58.5 C-33.63068604 57.42645264 -33.01137207 56.35290527 -32.37329102 55.24682617 C-31.12923208 53.09059787 -29.88493058 50.93450951 -28.64038086 48.77856445 C-25.75845933 43.78552493 -22.8787525 38.7912612 -20.0080719 33.79174805 C-6.44902888 10.17833951 -6.44902888 10.17833951 0 0 Z " fill="#000000" transform="translate(2273,1642)"/>
<path d="M0 0 C27.72 0 55.44 0 84 0 C84 73.59 84 147.18 84 223 C53.78223531 203.77051338 29.12057564 181.07345028 8.73566532 151.48355579 C7.58737772 149.84047616 6.40314668 148.22188799 5.18311977 146.63135052 C-0.23451396 139.09739194 -0.97839462 133.21440023 -0.79467773 124.08325195 C-0.79269839 122.72204186 -0.79382095 121.36082432 -0.79777527 119.99961853 C-0.7997671 116.33855844 -0.75889003 112.67913478 -0.70975757 109.01845193 C-0.66571565 105.1802091 -0.6618644 101.34192028 -0.65357971 97.50346375 C-0.63190502 90.25028183 -0.57457519 82.99784684 -0.50413328 75.74499243 C-0.41092812 65.93340316 -0.37340994 56.12160667 -0.33261776 46.30968571 C-0.26698419 30.87256537 -0.12747834 15.4370205 0 0 Z " fill="#FDFDFE" transform="translate(1040,1226)"/>
<path d="M0 0 C27.39 0 54.78 0 83 0 C83.165 12.08625 83.33 24.1725 83.5 36.625 C83.57283203 40.41307129 83.64566406 44.20114258 83.72070312 48.10400391 C83.75683594 52.80151367 83.75683594 52.80151367 83.7635498 55.01449585 C83.7756756 56.5299063 83.8034765 58.04524937 83.84460449 59.56015015 C84.15608501 71.65916289 81.98995706 79.00309057 75 89 C74.4285022 89.86682404 73.85700439 90.73364807 73.26818848 91.6267395 C71.89334089 93.70662864 70.46303018 95.73137615 69 97.75 C68.484375 98.46897461 67.96875 99.18794922 67.4375 99.92871094 C59.96511364 110.28263628 51.80102553 119.76683169 43 129 C42.2894043 129.74564209 42.2894043 129.74564209 41.56445312 130.50634766 C32.82575878 139.60966494 23.29788984 147.36782481 13.1875 154.875 C12.56520508 155.33970703 11.94291016 155.80441406 11.30175781 156.28320312 C10.70073242 156.72341797 10.09970703 157.16363281 9.48046875 157.6171875 C8.68999146 158.19895752 8.68999146 158.19895752 7.88354492 158.79248047 C5.37591748 160.40009231 2.6642239 161.66788805 0 163 C0 109.21 0 55.42 0 0 Z " fill="#FEFEFE" transform="translate(1379,1283)"/>
<path d="M0 0 C2.64 1.98 5.28 3.96 8 6 C7.34 6.66 6.68 7.32 6 8 C5.7525 7.38125 5.505 6.7625 5.25 6.125 C3.79371361 3.64931313 2.62187494 3.04874998 0 2 C0 1.34 0 0.68 0 0 Z " fill="#4E86E5" transform="translate(961,1578)"/>
</svg>
